<?xml version="1.0" standalone="no"?>
<!DOCTYPE svg PUBLIC "-//W3C//DTD SVG 20010904//EN"
 "http://www.w3.org/TR/2001/REC-SVG-20010904/DTD/svg10.dtd">
<svg version="1.0" xmlns="http://www.w3.org/2000/svg"
 width="1024.000000pt" height="1024.000000pt" viewBox="0 0 1024.000000 1024.000000"
 preserveAspectRatio="xMidYMid meet">

<g transform="translate(0.000000,1024.000000) scale(0.100000,-0.100000)"
fill="#000000" stroke="none">
<path d="M5122 8878 c-9 -9 -12 -88 -13 -287 -1 -152 -5 -287 -9 -301 -4 -14
-8 -19 -9 -12 -1 6 -5 12 -10 12 -4 0 -6 -12 -3 -26 3 -18 8 -22 15 -15 7 7
14 7 23 0 7 -6 28 -9 46 -7 l33 3 3 309 c2 219 -1 313 -9 322 -14 17 -51 18
-67 2z"/>
<path d="M4627 8714 c-15 -15 -7 -53 13 -59 27 -8 52 12 48 39 -3 21 -46 35
-61 20z"/>
<path d="M5604 8706 c-10 -26 1 -51 23 -54 25 -4 46 27 37 52 -8 20 -53 21
-60 2z"/>
<path d="M4925 8436 c-84 -40 -174 -130 -210 -209 -79 -172 -41 -353 100 -486
36 -34 70 -61 75 -61 5 0 8 -68 7 -152 -2 -148 -1 -155 25 -204 34 -64 95
-120 147 -134 l41 -11 0 -344 c0 -190 -2 -345 -4 -345 -2 0 -32 35 -67 77
-262 318 -661 572 -1074 686 -222 61 -389 84 -642 89 -172 3 -176 2 -178 -65
-4 -114 -2 -107 -37 -100 -18 3 -62 16 -97 29 -119 45 -131 36 -131 -98 l0
-98 -88 0 c-123 0 -122 2 -122 -178 l0 -142 -225 0 c-212 0 -225 -1 -235 -19
-7 -13 -10 -547 -10 -1655 0 -1604 0 -1636 19 -1655 19 -19 39 -20 685 -18
366 1 666 -1 666 -4 0 -3 -10 -25 -21 -49 -49 -102 -89 -266 -89 -367 0 -54
-9 -58 -141 -70 -86 -7 -94 -10 -97 -30 -6 -44 52 -51 208 -27 l36 6 13 -78
c7 -43 22 -100 32 -127 10 -26 19 -54 19 -62 0 -30 -278 -85 -432 -85 -81 0
-87 1 -94 23 -12 36 -8 217 5 280 l13 58 36 -7 c69 -14 77 -12 80 23 3 29 1
31 -37 38 -26 4 -41 12 -41 21 0 30 41 93 73 113 93 57 70 191 -33 191 -80 0
-123 -77 -85 -150 14 -28 14 -33 -10 -80 l-25 -50 -33 16 c-17 9 -59 43 -93
75 -43 42 -65 58 -77 53 -49 -19 17 -114 125 -181 35 -21 57 -42 54 -49 -23
-59 -30 -115 -30 -226 l0 -127 -26 7 c-39 10 -81 6 -91 -9 -5 -8 -9 -12 -10
-9 0 3 -3 16 -5 30 -4 19 -2 22 8 12 6 -6 19 -12 27 -12 9 1 4 7 -12 16 -32
17 -54 10 -36 -12 9 -11 8 -14 -2 -14 -22 0 60 -51 119 -74 l54 -21 24 -75
c13 -41 40 -102 60 -135 28 -45 37 -72 39 -109 1 -40 6 -53 29 -72 38 -34 78
-31 110 7 34 40 34 83 0 114 -15 14 -39 25 -55 25 -25 0 -32 9 -72 93 -24 50
-47 104 -51 118 l-6 26 119 6 c106 5 336 44 397 67 21 8 26 4 54 -46 51 -87
78 -116 101 -104 28 16 23 40 -23 109 -24 35 -37 65 -32 70 5 4 32 14 59 21
77 21 361 136 445 181 93 50 245 151 325 216 61 50 74 77 44 96 -13 8 -30 0
-80 -40 -201 -159 -409 -267 -716 -373 l-114 -40 -18 43 c-20 47 -51 173 -51
209 0 20 16 31 113 76 128 60 261 151 355 244 70 69 86 92 78 114 -10 27 -42
14 -91 -37 -84 -86 -224 -188 -329 -240 -138 -67 -139 -67 -130 24 9 101 38
210 79 295 l34 72 218 0 c247 0 299 -9 448 -79 126 -59 207 -119 349 -259 108
-106 144 -135 206 -165 129 -64 258 -81 402 -53 141 28 212 71 358 220 58 59
130 127 160 151 67 52 188 114 295 151 75 26 94 28 305 33 124 4 231 5 238 3
18 -6 78 -138 102 -223 11 -40 23 -108 26 -151 l7 -77 -24 6 c-106 26 -277
135 -416 266 -52 49 -99 87 -105 85 -30 -10 -31 -35 -4 -71 90 -118 320 -279
489 -342 26 -10 49 -21 52 -24 10 -16 -45 -243 -65 -264 -7 -8 -170 44 -297
94 -179 71 -430 217 -546 317 -27 23 -52 42 -56 42 -4 0 -15 -8 -25 -19 -15
-17 -15 -19 1 -38 28 -32 150 -125 238 -183 66 -43 151 -87 330 -170 30 -14
213 -80 270 -97 28 -8 52 -17 54 -19 3 -2 -17 -36 -43 -74 -28 -41 -46 -76
-42 -85 8 -23 34 -29 53 -14 16 14 88 120 95 140 2 7 35 3 90 -10 122 -30 278
-51 377 -51 l83 0 -7 -27 c-3 -16 -26 -70 -50 -120 -41 -88 -45 -93 -75 -93
-43 0 -80 -39 -80 -83 0 -46 26 -76 72 -84 32 -5 41 -1 68 25 22 22 30 40 30
65 0 22 15 64 39 109 22 40 49 105 61 143 l21 70 62 24 c127 48 225 132 222
190 -1 17 2 31 7 31 5 0 7 4 3 9 -3 5 -1 12 5 16 5 3 15 16 21 28 6 12 -2 6
-17 -13 -79 -98 -181 -176 -255 -193 l-25 -7 -1 123 c-1 73 -7 146 -16 182
-15 56 -14 60 3 72 66 47 109 84 138 122 35 46 36 58 9 75 -13 8 -28 -1 -79
-50 -57 -55 -106 -91 -112 -82 -1 2 -12 26 -24 53 -22 48 -22 51 -6 84 25 50
4 109 -48 134 -33 16 -40 17 -72 3 -85 -35 -86 -157 -2 -187 29 -10 39 -22 57
-66 12 -30 19 -56 16 -59 -14 -14 -154 -26 -252 -21 -148 8 -155 11 -155 56 0
108 -69 367 -112 418 -9 11 68 13 433 13 764 -1 906 3 927 23 16 17 17 109 14
1660 -3 1089 -7 1646 -14 1654 -7 9 -71 13 -232 15 l-221 3 -3 144 c-1 86 -7
150 -14 158 -7 9 -39 13 -104 13 l-94 0 0 94 c0 73 -4 98 -16 110 -20 20 -11
21 -121 -14 -51 -16 -100 -30 -107 -30 -18 0 -28 43 -25 105 4 70 -4 73 -174
68 -399 -11 -700 -81 -1022 -238 -152 -73 -270 -149 -411 -263 -101 -81 -253
-234 -303 -304 -26 -38 -48 -51 -37 -22 3 9 6 161 6 339 l0 323 34 12 c49 16
108 70 136 126 23 45 25 62 28 207 2 86 7 157 12 157 4 0 31 21 59 46 110 99
156 205 148 344 -6 119 -35 187 -114 271 -47 49 -80 74 -133 98 -91 42 -114
39 -118 -15 -3 -39 -1 -41 40 -60 23 -10 70 -45 104 -76 81 -76 108 -136 109
-238 0 -118 -38 -192 -142 -270 l-67 -51 3 -157 c3 -178 -7 -222 -63 -269
l-31 -26 -3 289 c-1 196 1 290 8 292 7 3 7 8 -1 18 -9 11 -6 18 12 34 l24 20
-26 -6 c-15 -3 -30 -1 -33 5 -12 19 -54 12 -73 -12 -10 -12 -26 -22 -36 -21
-13 2 -14 1 -2 -3 9 -3 20 -16 26 -29 13 -36 12 -571 -2 -579 -16 -10 -59 34
-81 83 -17 37 -19 63 -17 205 l2 162 -43 29 c-110 75 -161 154 -168 262 -9
137 58 250 187 318 63 33 71 40 71 66 0 71 -23 76 -125 26z m-1415 -1226 c548
-50 1031 -286 1406 -687 164 -175 164 -175 164 -239 0 -30 -4 -54 -8 -54 -5 0
-21 14 -38 31 -60 65 -273 235 -389 312 -224 148 -495 266 -727 318 -103 23
-396 37 -513 24 -93 -10 -130 -50 -87 -92 15 -16 30 -17 162 -9 298 19 567
-41 870 -195 245 -124 423 -253 605 -437 l125 -126 0 -56 c0 -30 -4 -60 -8
-67 -5 -7 -35 15 -88 65 -255 240 -622 441 -971 531 -177 45 -261 54 -466 49
-198 -4 -239 -14 -245 -56 -7 -49 4 -52 216 -45 158 5 216 3 292 -10 288 -50
558 -160 825 -335 151 -98 214 -149 343 -276 l102 -100 0 -68 c0 -38 -4 -68
-8 -68 -4 0 -24 16 -43 36 -48 51 -248 200 -350 262 -386 232 -802 344 -1173
314 -168 -14 -193 -21 -202 -58 -9 -37 27 -68 71 -60 307 56 678 -4 1021 -165
224 -105 408 -230 587 -401 l98 -93 -3 -77 -3 -78 -65 60 c-87 82 -306 227
-443 294 -184 90 -386 152 -588 181 -181 26 -524 16 -628 -18 -32 -11 -36 -16
-39 -49 -4 -48 15 -54 126 -37 109 17 392 17 497 0 226 -36 406 -92 600 -186
198 -96 299 -167 488 -345 l58 -54 -3 -68 c-1 -37 -5 -68 -8 -68 -3 0 -26 21
-50 46 -84 87 -360 255 -535 327 -272 112 -629 170 -896 147 -67 -6 -128 -15
-135 -21 -20 -17 -26 -46 -14 -69 10 -19 16 -20 183 -14 194 8 318 -3 497 -43
341 -76 636 -227 858 -439 l102 -99 0 -55 c0 -82 -8 -86 -64 -30 -113 112
-425 296 -626 368 -235 85 -437 117 -700 109 -102 -3 -197 -10 -211 -15 -33
-13 -42 -44 -22 -73 15 -21 19 -21 177 -14 287 12 531 -29 795 -136 170 -68
374 -191 476 -284 168 -155 175 -163 175 -213 0 -26 -3 -57 -6 -70 -6 -21 -11
-18 -72 39 -141 132 -459 314 -677 387 -110 37 -294 76 -435 93 -109 12 -350
7 -404 -9 -40 -11 -53 -55 -25 -83 20 -20 14 -20 181 -4 69 6 272 -10 388 -31
364 -68 727 -252 958 -488 l92 -93 0 -76 0 -76 -66 64 c-114 112 -298 235
-495 330 -127 60 -218 93 -365 129 -171 43 -248 51 -455 50 -213 -2 -251 -10
-257 -52 -7 -49 4 -51 236 -51 233 1 323 -11 525 -67 291 -81 566 -243 778
-455 l99 -99 0 -90 c0 -50 -3 -90 -7 -90 -5 0 -26 19 -48 41 -147 150 -408
321 -633 416 -312 131 -640 179 -1014 150 l-108 -9 0 1424 c0 784 3 1428 7
1431 9 10 101 8 233 -3z m3505 -1417 c0 -782 -3 -1424 -6 -1428 -4 -3 -81 -1
-172 6 -456 33 -909 -87 -1280 -338 -126 -85 -188 -135 -276 -224 l-61 -62 0
102 0 102 48 56 c184 215 531 416 867 503 177 46 234 52 468 51 l217 0 16 24
c22 33 4 62 -44 72 -20 4 -125 7 -232 7 -250 0 -404 -27 -650 -116 -159 -57
-408 -193 -485 -264 -11 -11 -63 -56 -116 -101 l-96 -83 5 83 5 82 101 99
c328 322 879 521 1343 486 142 -11 173 -3 173 45 0 45 -33 55 -196 62 -287 11
-555 -39 -844 -159 -207 -85 -358 -184 -527 -342 l-53 -49 0 77 0 76 68 71
c183 192 437 340 741 430 224 66 442 90 660 72 117 -10 144 -3 149 39 2 20 -4
31 -24 45 -25 16 -53 18 -258 18 -201 0 -247 -3 -351 -23 -353 -69 -680 -225
-912 -437 l-73 -66 0 80 0 80 88 81 c235 218 494 349 842 428 217 49 283 56
497 48 187 -6 192 -6 203 14 14 26 5 57 -21 70 -35 19 -290 32 -407 20 -337
-33 -690 -147 -922 -298 -63 -42 -200 -147 -247 -191 l-33 -30 0 75 0 75 68
65 c268 259 611 425 1032 500 120 21 367 24 517 5 91 -11 116 -11 128 -1 18
15 20 64 2 78 -29 24 -166 37 -397 36 -217 0 -245 -2 -363 -27 -238 -51 -448
-131 -646 -246 -67 -39 -255 -187 -313 -246 l-28 -28 0 83 0 83 98 96 c267
263 626 457 992 537 149 32 382 43 535 25 115 -14 138 -6 133 42 -4 45 -30 54
-201 68 -516 41 -1095 -181 -1509 -580 l-48 -45 0 76 0 77 83 87 c274 288 680
514 1097 610 82 19 382 29 475 16 75 -10 100 -4 110 27 8 27 -4 51 -34 63 -41
16 -376 23 -472 9 -226 -33 -525 -135 -724 -249 -178 -102 -390 -260 -491
-368 l-42 -44 -4 47 c-7 81 5 108 87 199 273 300 756 573 1130 639 123 22 301
29 415 17 109 -11 130 -5 130 38 0 21 -8 35 -27 47 -23 15 -56 18 -223 21
-178 3 -206 1 -322 -22 -298 -61 -544 -169 -818 -359 -133 -93 -163 -118 -282
-235 l-88 -86 0 69 c0 70 0 70 53 130 181 208 318 330 506 453 333 218 783
354 1151 348 l85 -1 0 -1422z m-3877 1241 c2 -1 6 -636 9 -1410 3 -775 6
-1410 7 -1410 0 -1 55 5 121 13 150 19 473 21 580 4 456 -71 899 -304 1137
-599 77 -94 111 -155 96 -170 -21 -21 -36 -13 -80 39 -135 161 -442 380 -643
460 -180 70 -322 110 -489 136 -207 33 -646 16 -840 -33 l-26 -6 0 1504 0
1505 63 -16 c34 -8 63 -16 65 -17z m4133 -1 c6 -105 7 -1751 2 -2301 l-6 -674
-21 6 c-51 15 -221 36 -375 47 -358 26 -701 -36 -1010 -182 -213 -101 -345
-194 -512 -364 -63 -63 -120 -115 -127 -115 -26 0 -23 32 9 88 44 73 269 299
374 374 189 134 483 255 734 302 190 36 471 39 715 6 44 -5 81 -8 84 -5 3 2 7
638 9 1412 l5 1408 51 11 c29 6 55 12 60 13 4 0 8 -11 8 -26z m-4401 -1639 l0
-1486 48 7 c26 3 112 19 192 35 207 41 357 54 550 47 201 -7 354 -33 520 -87
131 -42 309 -124 405 -186 72 -46 253 -191 328 -263 l58 -56 -26 -22 -26 -23
-73 64 c-74 64 -217 166 -235 166 -5 0 -14 -13 -19 -29 -11 -32 -7 -38 93
-116 76 -60 155 -136 155 -150 0 -7 -6 -18 -13 -24 -11 -8 -18 -6 -33 10 -24
27 -146 126 -204 166 -75 51 -228 123 -338 159 -210 69 -215 69 -1014 66
l-718 -2 0 1399 c0 769 -3 1419 -6 1445 l-7 47 82 -3 81 -3 0 -1375 c0 -756 3
-1392 6 -1412 8 -47 -8 -47 295 -8 463 58 679 61 957 14 170 -29 315 -76 470
-151 64 -31 117 -52 122 -47 5 5 12 21 15 35 5 22 1 30 -23 48 -112 79 -397
186 -597 223 -170 31 -563 31 -843 0 -106 -12 -209 -22 -228 -22 l-34 0 0
1510 0 1510 30 0 30 0 0 -1486z m4614 1449 c0 -18 -1 -697 -2 -1509 l-2 -1477
-82 6 c-46 4 -148 14 -228 23 -101 12 -226 18 -415 18 -257 0 -276 -1 -398
-27 -370 -79 -668 -228 -909 -455 -66 -63 -67 -63 -92 -46 -14 9 -26 20 -26
24 0 4 51 57 113 117 223 216 454 342 770 423 322 81 668 78 1077 -9 52 -12
103 -21 113 -21 16 0 17 77 17 1486 l0 1485 33 -3 c29 -3 32 -6 31 -35z
m-5056 -1804 l2 -1516 68 -6 c37 -4 405 -7 817 -7 431 0 779 -5 817 -10 128
-19 289 -85 427 -177 51 -34 134 -106 206 -178 175 -175 251 -212 417 -203
137 8 190 39 363 210 78 76 163 154 190 174 107 76 306 155 440 174 41 5 380
10 811 10 408 0 775 3 817 6 l77 7 0 1518 0 1519 35 0 35 0 0 -1540 0 -1540
-834 0 c-544 0 -862 -4 -912 -11 -152 -21 -332 -93 -458 -183 -34 -24 -120
-102 -192 -174 -105 -106 -143 -137 -195 -161 -92 -43 -190 -58 -281 -43 -123
21 -184 58 -329 199 -71 70 -155 146 -186 170 -103 77 -236 136 -413 185 -33
9 -279 13 -930 17 l-885 6 -3 1538 -2 1538 47 -3 48 -3 3 -1516z m5352 76 l0
-1445 -717 3 c-779 2 -783 2 -978 -54 -201 -57 -374 -151 -538 -292 -64 -55
-70 -58 -85 -43 -16 15 -12 21 48 77 140 131 320 244 508 319 349 138 733 159
1342 74 58 -8 140 -17 183 -21 l77 -6 0 1417 0 1416 80 0 80 0 0 -1445z m-493
-2376 c13 -71 16 -192 6 -253 l-6 -39 -131 6 c-128 5 -369 46 -389 66 -5 5 -5
16 1 28 14 26 43 139 51 198 6 46 8 50 31 47 110 -12 292 -11 345 1 33 8 65
13 70 12 6 -1 15 -31 22 -66z m335 -136 c-10 -4 -10 -8 0 -21 11 -13 10 -15
-3 -10 -9 4 -22 1 -29 -5 -7 -7 -5 0 5 16 9 15 22 27 29 26 7 0 6 -3 -2 -6z
m-22 -63 c-6 -11 -15 -20 -20 -20 -6 0 -2 9 7 20 10 11 19 20 21 20 1 0 -2 -9
-8 -20z"/>
<path d="M3542 8286 c-61 -38 -74 -50 -47 -41 16 5 17 5 5 -3 -8 -6 -18 -8
-22 -6 -10 6 -68 -34 -68 -46 0 -5 7 -16 16 -24 14 -15 20 -13 62 21 64 51 71
57 42 43 -22 -12 -23 -11 -13 2 7 8 10 18 6 21 -3 4 3 10 13 14 17 6 75 54 64
52 -3 0 -29 -15 -58 -33z"/>
<path d="M7196 8254 c-19 -19 -20 -25 -3 -48 19 -26 57 -13 57 19 0 33 -33 51
-54 29z"/>
<path d="M3047 8253 c-14 -13 -6 -43 14 -53 26 -14 49 3 49 36 0 20 -5 24 -28
24 -16 0 -32 -3 -35 -7z"/>
<path d="M3530 8256 c0 -9 40 -13 46 -5 3 5 -6 9 -20 9 -14 0 -26 -2 -26 -4z"/>
<path d="M4195 8211 c-213 -74 -355 -143 -355 -171 0 -25 27 -45 43 -33 50 40
245 126 379 167 92 28 102 34 92 60 -9 24 -37 20 -159 -23z"/>
<path d="M5934 8235 c-12 -29 5 -42 83 -64 102 -30 235 -82 336 -131 77 -38
83 -39 95 -23 11 16 9 21 -19 45 -36 31 -184 94 -349 149 -128 44 -138 45
-146 24z"/>
<path d="M5016 8209 c-11 -10 -17 -21 -14 -24 2 -3 15 6 28 20 27 29 14 33
-14 4z"/>
<path d="M6865 8176 c0 -18 3 -22 13 -14 6 6 12 17 12 24 0 8 -6 14 -12 14 -7
0 -13 -11 -13 -24z"/>
<path d="M4978 8144 c5 -29 8 -30 15 -5 3 11 -1 22 -8 24 -8 4 -10 -3 -7 -19z"/>
<path d="M3286 8124 c-21 -20 -20 -27 3 -48 18 -17 20 -17 40 3 17 17 19 25
11 41 -13 24 -33 26 -54 4z"/>
<path d="M6974 8132 c-31 -21 -13 -79 21 -66 20 8 29 42 15 59 -14 17 -20 18
-36 7z"/>
<path d="M2557 8116 c-199 -72 -272 -328 -141 -500 116 -152 343 -162 474 -20
63 69 85 124 85 219 0 65 -5 89 -25 130 -34 71 -114 148 -174 168 -59 20 -166
21 -219 3z m202 -126 c73 -37 119 -125 107 -205 -8 -52 -37 -97 -89 -139 -52
-42 -141 -48 -207 -14 -123 63 -146 230 -46 327 65 63 151 74 235 31z"/>
<path d="M2594 7921 c-17 -10 -39 -36 -48 -56 -24 -51 -16 -99 26 -142 57 -59
129 -54 188 14 24 27 30 43 30 80 0 39 -5 50 -39 84 -33 33 -45 39 -82 39 -25
0 -57 -8 -75 -19z m100 -93 c16 -26 -26 -68 -52 -52 -22 14 -27 41 -11 60 15
19 49 14 63 -8z"/>
<path d="M5104 8106 c-13 -22 -14 -29 -2 -53 18 -38 63 -39 91 -1 19 25 19 28
3 52 -22 35 -69 36 -92 2z"/>
<path d="M5312 8105 c0 -16 2 -22 5 -12 2 9 2 23 0 30 -3 6 -5 -1 -5 -18z"/>
<path d="M7540 8121 c-86 -28 -160 -91 -201 -171 -33 -65 -33 -195 -1 -265 60
-132 201 -209 336 -184 77 14 122 37 173 89 69 72 88 121 87 225 0 104 -19
151 -88 223 -62 65 -107 85 -201 88 -44 2 -91 0 -105 -5z m138 -113 c84 -21
152 -112 152 -203 0 -39 -34 -111 -62 -136 -115 -98 -261 -70 -329 63 -29 56
-23 131 14 187 30 45 59 67 115 87 46 16 53 17 110 2z"/>
<path d="M7574 7926 c-80 -35 -100 -128 -41 -192 79 -86 217 -30 217 88 0 28
-8 45 -34 72 -18 20 -42 36 -52 36 -11 0 -28 2 -39 5 -11 3 -34 -1 -51 -9z"/>
<path d="M7082 8038 c-15 -15 -16 -54 -2 -63 35 -22 77 38 44 62 -22 16 -27
16 -42 1z"/>
<path d="M3156 8025 c-12 -31 17 -61 48 -49 38 14 27 64 -14 64 -16 0 -30 -7
-34 -15z"/>
<path d="M4305 8013 c-87 -21 -365 -150 -491 -229 -137 -85 -150 -98 -121
-123 10 -8 25 -3 63 21 176 112 345 198 499 253 77 28 90 36 90 56 0 24 -9 29
-40 22z"/>
<path d="M5935 7999 c-4 -11 -5 -23 -2 -26 3 -2 56 -22 119 -44 62 -22 133
-48 157 -60 45 -21 71 -20 71 5 0 20 -31 37 -155 85 -60 24 -120 47 -133 52
-35 14 -50 11 -57 -12z"/>
<path d="M3685 7964 c-77 -46 -78 -46 -60 -71 l15 -22 66 41 c50 31 64 46 62
61 -5 32 -19 30 -83 -9z"/>
<path d="M6532 7988 c-23 -23 -12 -37 56 -77 85 -50 263 -173 281 -195 18 -21
38 -20 50 3 8 14 5 23 -17 43 -45 41 -132 103 -228 161 -130 78 -129 78 -142
65z"/>
<path d="M3505 7848 c-38 -21 -243 -188 -248 -202 -3 -8 3 -22 13 -31 17 -15
21 -13 76 35 33 29 91 76 131 106 81 62 85 66 77 88 -7 19 -21 20 -49 4z"/>
<path d="M4005 7641 c-38 -22 -71 -43 -72 -48 -2 -5 3 -18 11 -28 13 -18 16
-18 33 -4 10 9 37 26 60 39 23 13 40 26 38 30 -3 4 3 7 13 6 21 -1 24 38 2 41
-8 1 -46 -15 -85 -36z"/>
<path d="M7006 7661 c-3 -5 0 -11 6 -14 7 -2 9 -8 5 -13 -5 -5 -15 -1 -23 10
-12 17 -14 17 -14 3 0 -9 9 -21 20 -27 15 -8 21 -6 29 9 8 14 7 22 -3 30 -9 8
-16 8 -20 2z"/>
<path d="M6336 7584 c-9 -24 -7 -28 9 -14 17 14 20 30 6 30 -5 0 -12 -7 -15
-16z"/>
<path d="M4333 7551 c-140 -65 -91 -281 63 -281 75 0 154 77 154 150 0 41 -30
92 -70 121 -39 29 -98 33 -147 10z m107 -91 c24 -24 25 -48 4 -78 -30 -44
-104 -20 -104 34 0 29 33 64 60 64 11 0 29 -9 40 -20z"/>
<path d="M5852 7563 c-47 -10 -122 -113 -105 -145 6 -12 86 21 100 42 18 26
67 26 93 0 24 -24 25 -48 4 -79 -17 -24 -31 -24 -106 -6 -19 5 -36 2 -54 -10
l-26 -17 24 -25 c71 -76 189 -69 245 16 45 66 20 171 -47 206 -32 16 -94 25
-128 18z"/>
<path d="M3820 7525 c-26 -32 13 -81 48 -59 34 22 22 74 -18 74 -10 0 -23 -7
-30 -15z"/>
<path d="M6412 7528 c-19 -19 -14 -45 10 -62 20 -14 24 -14 40 1 30 27 17 73
-22 73 -9 0 -21 -5 -28 -12z"/>
<path d="M2220 7465 c-20 -25 -8 -50 25 -50 24 0 31 5 33 24 6 37 -34 55 -58
26z"/>
<path d="M8020 7461 c-21 -40 19 -74 51 -45 23 21 24 28 3 48 -21 21 -41 20
-54 -3z"/>
<path d="M4602 7258 c-16 -16 -15 -43 3 -58 22 -18 67 13 63 43 -3 25 -46 35
-66 15z"/>
<path d="M5632 7258 c-20 -20 -14 -48 13 -60 21 -9 29 -9 42 5 14 13 14 21 5
42 -12 27 -40 33 -60 13z"/>
<path d="M8201 7236 c-27 -32 12 -83 43 -57 17 14 22 61 7 61 -5 0 -16 2 -24
5 -7 3 -19 -1 -26 -9z"/>
<path d="M2036 7224 c-7 -19 10 -54 27 -54 30 1 53 40 34 59 -16 16 -54 13
-61 -5z"/>
<path d="M4690 7160 c-16 -29 -3 -60 24 -60 28 0 46 18 46 46 0 37 -52 47 -70
14z"/>
<path d="M5542 7168 c-29 -29 -2 -72 40 -66 42 6 32 78 -11 78 -9 0 -22 -5
-29 -12z"/>
<path d="M4786 7068 c-9 -5 -16 -22 -16 -39 0 -52 69 -59 85 -9 12 36 -34 68
-69 48z"/>
<path d="M5452 7058 c-39 -39 17 -100 58 -63 34 31 20 75 -25 75 -12 0 -26 -5
-33 -12z"/>
<path d="M1747 7053 c-15 -14 -5 -34 26 -53 17 -11 39 -20 47 -20 9 0 5 6 -9
13 -13 6 -26 22 -28 35 -3 20 0 22 19 17 18 -5 20 -4 8 4 -17 12 -53 14 -63 4z"/>
<path d="M8518 7053 c12 -2 20 -9 17 -14 -4 -5 1 -9 9 -9 9 0 16 4 16 9 0 11
-26 21 -48 20 -10 -1 -8 -4 6 -6z"/>
<path d="M8470 7040 c-9 -6 -10 -10 -3 -10 6 0 15 5 18 10 8 12 4 12 -15 0z"/>
<path d="M1830 7034 c0 -7 111 -57 115 -52 2 2 -23 16 -55 30 -33 14 -60 24
-60 22z"/>
<path d="M1860 6990 c0 -5 5 -10 11 -10 5 0 7 5 4 10 -3 6 -8 10 -11 10 -2 0
-4 -4 -4 -10z"/>
<path d="M1867 6959 c7 -7 15 -10 18 -7 3 3 -2 9 -12 12 -14 6 -15 5 -6 -5z"/>
<path d="M1988 6963 c6 -2 18 -2 25 0 6 3 1 5 -13 5 -14 0 -19 -2 -12 -5z"/>
<path d="M2048 6949 c15 -6 30 -5 40 1 13 7 8 9 -23 9 -35 0 -37 -1 -17 -10z"/>
<path d="M2118 6953 c7 -3 16 -2 19 1 4 3 -2 6 -13 5 -11 0 -14 -3 -6 -6z"/>
<path d="M1910 6940 c8 -5 20 -10 25 -10 6 0 3 5 -5 10 -8 5 -19 10 -25 10 -5
0 -3 -5 5 -10z"/>
<path d="M1814 6795 c-8 -32 6 -48 37 -43 19 2 24 9 24 33 0 25 -4 31 -27 33
-22 3 -29 -2 -34 -23z"/>
<path d="M8424 6806 c-11 -28 1 -51 25 -51 32 0 49 28 32 49 -17 20 -50 21
-57 2z"/>
<path d="M1534 6522 c-16 -10 -34 -48 -34 -71 0 -25 45 -61 76 -61 29 0 64 36
64 67 0 47 -69 90 -106 65z"/>
<path d="M8690 6512 c-46 -38 -18 -122 42 -122 26 0 68 44 68 73 0 55 -66 85
-110 49z"/>
<path d="M1901 6441 c-24 -16 33 -37 61 -24 21 10 20 11 -12 9 -23 -1 -34 3
-32 12 2 14 1 14 -17 3z"/>
<path d="M1895 6343 c17 -15 40 -41 53 -57 12 -16 22 -25 22 -21 0 12 -35 52
-71 80 l-34 27 30 -29z"/>
<path d="M1913 6242 c34 -38 12 -120 -45 -162 l-31 -23 22 -12 c19 -10 20 -13
8 -24 -8 -6 -19 -11 -23 -9 -5 1 -20 -4 -34 -11 l-25 -14 19 22 c12 13 26 19
38 15 23 -7 24 12 1 21 -13 4 -30 -6 -61 -39 -41 -43 -45 -46 -82 -40 -75 12
-130 -33 -130 -107 0 -45 56 -99 102 -99 27 0 44 -9 76 -40 49 -46 71 -51 211
-48 86 3 106 6 115 20 21 34 -18 47 -142 48 -110 0 -114 1 -138 27 -15 16 -22
33 -18 42 4 9 8 38 10 65 3 45 9 55 59 106 49 49 54 58 41 69 -9 8 -13 17 -10
23 3 5 11 5 19 -2 9 -8 14 -6 19 5 3 8 0 15 -6 15 -7 0 -6 5 2 15 9 11 15 12
20 5 4 -6 11 0 18 15 6 14 7 25 3 25 -5 0 -12 -8 -14 -17 -4 -14 -5 -12 -6 5
0 12 3 22 9 22 22 0 -3 85 -28 95 -14 5 -14 4 1 -13z m-89 -268 c-40 -33 -49
-30 -18 6 15 16 31 27 36 23 6 -3 -3 -16 -18 -29z m236 -270 c0 -2 -7 -4 -15
-4 -8 0 -15 4 -15 10 0 5 7 7 15 4 8 -4 15 -8 15 -10z m-55 -14 c-3 -5 -12
-10 -18 -10 -7 0 -6 4 3 10 19 12 23 12 15 0z"/>
<path d="M1976 6237 c3 -10 9 -15 12 -12 3 3 0 11 -7 18 -10 9 -11 8 -5 -6z"/>
<path d="M1961 6194 c0 -11 3 -14 6 -6 3 7 2 16 -1 19 -3 4 -6 -2 -5 -13z"/>
<path d="M8442 6146 c-90 -29 -164 -119 -177 -217 -20 -144 102 -284 244 -281
80 1 174 50 212 110 53 84 61 149 29 236 -45 120 -188 191 -308 152z m160
-131 c118 -77 38 -281 -104 -262 -128 17 -172 165 -75 255 50 47 113 49 179 7z"/>
<path d="M8484 5990 c-65 -26 -84 -112 -35 -161 40 -39 79 -39 126 2 29 25 35
38 35 69 0 66 -67 114 -126 90z m56 -79 c0 -10 -7 -24 -15 -31 -21 -17 -39 1
-30 29 8 27 45 28 45 2z"/>
<path d="M1966 6125 c-9 -26 -7 -32 5 -12 6 10 9 21 6 23 -2 3 -7 -2 -11 -11z"/>
<path d="M1293 6093 c-19 -7 -16 -40 4 -47 19 -7 46 20 40 39 -4 12 -26 16
-44 8z"/>
<path d="M1930 6075 c-7 -9 -11 -17 -8 -20 2 -2 12 4 21 15 9 11 13 20 8 20
-5 0 -14 -7 -21 -15z"/>
<path d="M1238 5783 c7 -3 16 -2 19 1 4 3 -2 6 -13 5 -11 0 -14 -3 -6 -6z"/>
<path d="M8503 5622 c-22 -3 -23 -8 -23 -82 0 -55 -5 -88 -17 -112 -29 -54
-116 -134 -202 -183 -45 -26 -81 -51 -81 -56 0 -6 14 -18 32 -27 57 -30 125
-101 152 -158 22 -46 30 -55 49 -52 12 2 23 11 25 23 l4 20 -17 -20 c-16 -19
-16 -18 -10 17 8 48 -11 84 -78 150 -32 31 -47 52 -39 55 12 5 74 50 136 100
17 14 25 27 20 34 -5 8 -2 10 7 7 22 -8 67 67 79 132 21 109 8 160 -37 152z
m-26 -264 c-3 -8 -6 -5 -6 6 -1 11 2 17 5 13 3 -3 4 -12 1 -19z m-122 -268
c-3 -5 -11 -10 -16 -10 -6 0 -7 5 -4 10 3 6 11 10 16 10 6 0 7 -4 4 -10z m25
-14 c0 -3 -4 -8 -10 -11 -5 -3 -10 -1 -10 4 0 6 5 11 10 11 6 0 10 -2 10 -4z
m17 -30 c0 -8 -6 -12 -15 -9 -11 5 -11 7 0 14 7 5 13 9 14 9 0 0 1 -6 1 -14z"/>
<path d="M1557 5604 c-14 -14 -7 -43 15 -58 33 -24 489 -24 508 -1 28 34 -3
39 -243 46 -128 4 -241 10 -252 14 -11 3 -24 3 -28 -1z m503 -54 c0 -5 -10
-10 -22 -9 -22 0 -22 1 -3 9 11 5 21 9 23 9 1 1 2 -3 2 -9z"/>
<path d="M8230 5570 c0 -5 12 -10 28 -9 24 0 25 1 7 9 -27 12 -35 12 -35 0z"/>
<path d="M1401 5492 c-12 -23 4 -52 29 -52 26 0 45 36 29 56 -16 19 -46 18
-58 -4z"/>
<path d="M8847 5504 c-15 -15 -7 -53 13 -59 27 -8 52 12 48 39 -3 21 -46 35
-61 20z"/>
<path d="M1358 5230 c-25 -26 -29 -36 -24 -63 10 -53 63 -79 116 -57 58 24 60
113 3 139 -39 18 -63 13 -95 -19z"/>
<path d="M8829 5229 c-29 -29 -23 -85 13 -112 24 -18 32 -19 67 -8 62 18 81
76 41 119 -28 29 -92 30 -121 1z"/>
<path d="M1574 5232 c-13 -8 -34 -46 -34 -61 0 -18 43 -51 65 -51 45 0 75 76
43 108 -13 13 -57 16 -74 4z"/>
<path d="M1743 5232 c-6 -4 -17 -20 -22 -35 -27 -70 65 -108 111 -46 19 25 19
28 4 58 -13 25 -23 31 -49 31 -17 0 -37 -4 -44 -8z"/>
<path d="M8487 5222 c-52 -57 17 -138 76 -91 31 24 36 68 11 93 -21 22 -67 20
-87 -2z"/>
<path d="M8661 5214 c-12 -15 -21 -30 -21 -34 0 -19 44 -60 64 -60 48 0 75 70
40 104 -23 24 -60 19 -83 -10z"/>
<path d="M1401 4951 c-15 -27 -4 -51 24 -51 31 0 52 27 38 48 -15 25 -50 27
-62 3z"/>
<path d="M8841 4951 c-15 -27 -4 -51 24 -51 31 0 52 27 38 48 -15 25 -50 27
-62 3z"/>
<path d="M8273 4859 c-41 -15 -27 -79 16 -79 29 0 59 38 47 59 -13 20 -41 29
-63 20z"/>
<path d="M1975 4840 c-10 -32 4 -60 30 -60 25 0 55 24 55 44 0 37 -74 51 -85
16z"/>
<path d="M8420 4832 c0 -54 53 -73 70 -26 13 34 -2 54 -41 54 -25 0 -29 -4
-29 -28z"/>
<path d="M1670 4835 c-26 -32 13 -81 48 -59 34 22 22 74 -18 74 -10 0 -23 -7
-30 -15z"/>
<path d="M1824 4835 c-9 -23 3 -45 25 -45 19 0 31 25 24 48 -6 17 -42 15 -49
-3z m27 -9 c5 3 9 -2 9 -10 0 -9 -7 -16 -15 -16 -9 0 -15 9 -14 23 0 12 3 16
6 9 2 -6 9 -10 14 -6z"/>
<path d="M8587 4843 c-4 -3 -7 -19 -7 -34 0 -24 15 -39 40 -39 11 0 40 29 40
40 0 26 -55 51 -73 33z"/>
<path d="M8840 4773 c1 -18 18 -35 24 -24 4 6 4 16 1 21 -7 12 -25 13 -25 3z"/>
<path d="M1425 4564 c-19 -19 -19 -29 0 -48 15 -15 38 -12 63 7 8 6 28 11 45
11 50 1 42 31 -8 33 -22 1 -50 4 -62 7 -13 3 -29 -2 -38 -10z"/>
<path d="M8230 4564 c-11 -12 -11 -18 2 -31 13 -12 42 -15 150 -15 73 1 139
-3 147 -7 17 -11 -5 -64 -43 -105 -26 -27 -27 -29 -9 -50 l18 -21 -23 19 c-22
19 -22 19 -52 -9 -35 -34 -60 -83 -60 -120 0 -51 38 -120 79 -143 43 -24 116
-30 123 -9 10 24 -5 37 -58 53 -33 9 -58 23 -65 36 -8 15 -8 111 1 166 0 2 5
0 10 -3 8 -5 7 -11 -1 -21 -6 -8 -10 -17 -7 -19 2 -3 29 21 59 53 53 55 83
104 91 147 2 13 12 21 30 23 31 4 46 35 28 57 -19 23 -402 22 -420 -1z"/>
<path d="M8740 4550 c0 -13 7 -20 19 -20 10 0 32 -7 47 -15 37 -19 49 -19 68
1 12 12 13 20 6 35 -12 21 -60 27 -60 7 0 -9 -3 -9 -12 0 -7 7 -25 12 -40 12
-21 0 -28 -5 -28 -20z"/>
<path d="M1715 4497 c-16 -19 -19 -50 -4 -41 7 4 10 3 6 -3 -11 -18 22 -70 79
-125 30 -29 57 -63 60 -75 4 -13 10 -23 16 -23 8 0 5 -18 -10 -59 -3 -8 -1
-12 4 -8 14 8 15 -34 2 -50 -6 -7 -15 -13 -21 -13 -5 0 -2 9 8 20 10 11 15 23
11 27 -4 4 -11 2 -15 -6 -5 -7 -11 -12 -15 -11 -4 1 -10 0 -14 -3 -4 -2 -1 -2
5 -1 15 4 13 -37 -2 -48 -6 -5 -6 -8 2 -8 20 0 70 48 87 84 35 74 17 123 -78
219 -31 32 -56 62 -56 68 0 5 -4 8 -8 5 -4 -2 -9 5 -9 16 -2 27 -12 36 -22 19
-6 -9 -11 -10 -15 -2 -4 6 -2 11 3 11 6 0 11 5 11 10 0 13 -13 12 -25 -3z
m146 -174 c13 -16 12 -17 -3 -4 -10 7 -18 15 -18 17 0 8 8 3 21 -13z m32 -73
c9 -11 13 -20 7 -20 -5 0 -14 9 -20 20 -6 11 -9 20 -8 20 2 0 11 -9 21 -20z"/>
<path d="M1494 4276 c-12 -31 0 -51 31 -51 24 0 31 5 33 24 6 36 -51 60 -64
27z"/>
<path d="M8744 4276 c-11 -28 1 -51 25 -51 32 0 49 28 32 49 -17 20 -50 21
-57 2z"/>
<path d="M1763 4109 c-11 -4 -24 -12 -27 -17 -10 -16 21 -34 51 -29 27 4 27 4
-4 6 -18 0 -33 6 -33 12 0 5 5 7 12 3 7 -4 8 -3 4 4 -4 7 -1 12 8 12 8 0 16
-6 19 -12 2 -7 8 -10 12 -6 14 13 -20 35 -42 27z"/>
<path d="M1391 4071 c-15 -27 -4 -51 24 -51 31 0 52 27 38 48 -15 25 -50 27
-62 3z"/>
<path d="M8860 4075 c-19 -23 -8 -50 22 -53 19 -2 28 2 33 18 12 39 -29 66
-55 35z"/>
<path d="M1884 3840 c-59 -24 -72 -104 -25 -151 32 -31 51 -35 99 -18 66 23
83 100 33 150 -30 30 -65 36 -107 19z"/>
<path d="M8324 3838 c-60 -28 -62 -133 -4 -163 42 -22 74 -19 108 10 87 73 -1
203 -104 153z"/>
<path d="M8697 3753 c-4 -3 -7 -15 -7 -25 0 -28 34 -19 38 10 3 21 -16 31 -31
15z"/>
<path d="M1713 3484 c-8 -20 8 -48 30 -52 22 -5 42 35 26 54 -16 19 -48 18
-56 -2z"/>
<path d="M8537 3493 c-14 -13 -7 -51 10 -57 24 -10 46 21 32 45 -10 19 -30 25
-42 12z"/>
<path d="M2005 3343 c-30 -7 -63 -42 -75 -79 -20 -60 26 -130 92 -140 66 -11
128 46 128 116 0 36 -28 77 -64 94 -35 16 -45 17 -81 9z"/>
<path d="M8210 3333 c-46 -24 -74 -73 -66 -117 18 -98 126 -128 197 -56 24 23
29 37 29 74 0 88 -83 139 -160 99z"/>
<path d="M2684 3285 c-8 -19 22 -136 40 -161 9 -11 19 -14 35 -9 26 8 25 28
-7 126 -13 42 -22 55 -40 57 -13 2 -25 -3 -28 -13z"/>
<path d="M7541 3282 c-4 -9 -14 -48 -21 -86 -11 -57 -10 -70 1 -77 8 -5 20 -8
28 -6 18 3 41 69 44 126 2 37 -1 45 -20 52 -17 6 -25 4 -32 -9z"/>
<path d="M2295 2878 c-29 -17 -35 -28 -35 -75 0 -33 5 -46 26 -62 15 -12 35
-21 46 -21 28 0 76 27 89 51 15 29 3 85 -24 104 -25 18 -74 19 -102 3z"/>
<path d="M7890 2870 c-27 -27 -28 -100 -2 -123 25 -23 75 -31 102 -17 33 18
52 71 39 109 -6 17 -19 36 -29 41 -32 17 -88 12 -110 -10z"/>
<path d="M5120 2706 c-6 -8 -10 -25 -8 -38 2 -18 10 -24 35 -26 28 -3 33 1 39
23 11 45 -37 75 -66 41z"/>
<path d="M2590 2675 c0 -10 40 -75 47 -75 2 0 -6 17 -18 38 -28 45 -29 47 -29
37z"/>
<path d="M4434 2646 c-101 -44 -100 -189 1 -232 84 -35 190 58 168 147 -10 40
-35 71 -70 85 -40 17 -59 17 -99 0z m80 -98 c8 -13 6 -22 -8 -37 -25 -28 -44
-26 -58 4 -21 46 38 76 66 33z"/>
<path d="M5751 2641 c-43 -23 -60 -54 -61 -110 0 -37 5 -49 39 -82 32 -32 46
-39 78 -39 55 0 104 35 121 85 11 34 11 46 -4 83 -28 75 -101 101 -173 63z
m86 -124 c-18 -28 -32 -31 -51 -12 -23 23 -20 54 7 65 17 6 26 4 40 -12 15
-18 16 -24 4 -41z"/>
<path d="M7685 2639 c-4 -6 -5 -12 -2 -15 2 -3 7 2 10 11 7 17 1 20 -8 4z"/>
<path d="M5122 2568 c-8 -8 -12 -49 -12 -116 l0 -105 -82 6 c-101 7 -191 28
-299 67 -77 29 -83 30 -100 14 -11 -10 -19 -21 -19 -26 0 -30 236 -101 398
-120 94 -11 102 -14 102 -34 0 -16 -10 -24 -39 -32 -49 -15 -106 -78 -121
-133 -23 -84 6 -160 83 -223 36 -28 45 -31 112 -31 65 0 78 3 117 30 77 54
110 163 75 248 -17 39 -87 104 -122 113 -35 9 -36 54 -1 54 83 0 341 58 429
97 40 17 45 29 23 58 -13 18 -16 18 -97 -14 -91 -36 -232 -68 -319 -73 l-55
-3 -3 104 c-1 58 -8 111 -14 118 -13 16 -40 17 -56 1z m72 -490 c9 -12 16 -35
16 -50 0 -16 5 -28 10 -28 10 0 13 14 12 60 l-1 25 8 -25 c14 -46 -20 -108
-49 -90 -13 8 -12 10 3 10 9 0 17 5 17 11 0 5 -4 8 -9 4 -6 -3 -8 8 -4 28 4
28 1 37 -22 55 -19 15 -23 22 -12 22 9 0 23 -10 31 -22z m-110 -13 c-8 -20 6
-19 23 3 13 15 13 15 4 -5 -6 -12 -11 -32 -11 -45 -1 -22 -2 -22 -16 5 -14 25
-13 57 0 57 3 0 3 -7 0 -15z m-19 -35 c3 -5 1 -10 -4 -10 -6 0 -11 5 -11 10 0
6 2 10 4 10 3 0 8 -4 11 -10z m35 -52 c17 -19 29 -25 39 -19 15 10 51 3 51
-10 0 -5 -7 -9 -15 -9 -8 0 -15 6 -15 13 0 8 -3 8 -9 -2 -12 -19 -64 2 -86 35
-22 33 2 28 35 -8z"/>
<path d="M2680 2554 c0 -7 66 -64 75 -64 5 0 4 5 -2 11 -6 6 -9 19 -6 28 4 13
3 13 -5 2 -5 -7 -15 -10 -21 -7 -15 10 -14 29 2 20 6 -4 9 -3 4 1 -7 8 -47 15
-47 9z"/>
<path d="M4044 2466 c-11 -29 1 -51 28 -54 33 -4 57 30 37 54 -15 18 -58 18
-65 0z"/>
<path d="M6184 2466 c-11 -28 1 -51 25 -51 28 0 47 25 38 49 -8 20 -56 21 -63
2z"/>
<path d="M3778 2290 c-26 -27 -30 -36 -25 -68 13 -79 94 -107 149 -52 26 27
30 36 25 68 -13 79 -94 107 -149 52z"/>
<path d="M6409 2305 c-78 -43 -40 -165 51 -165 33 0 80 53 80 89 0 63 -76 107
-131 76z"/>
<path d="M4170 2200 c-11 -11 -20 -26 -20 -34 0 -25 31 -48 59 -43 14 3 53 -5
88 -18 114 -43 254 -76 269 -64 25 21 15 38 -28 49 -135 36 -267 82 -297 105
-42 30 -46 30 -71 5z"/>
<path d="M6062 2200 c-17 -21 -176 -77 -286 -101 -62 -14 -78 -31 -53 -57 15
-14 26 -13 129 18 62 18 132 41 155 51 27 11 54 16 76 12 28 -4 37 -1 51 18
21 30 20 35 -4 59 -25 25 -46 25 -68 0z"/>
<path d="M4667 2063 c-4 -3 -7 -17 -7 -30 0 -20 5 -24 22 -21 26 3 37 36 16
49 -16 11 -23 11 -31 2z"/>
<path d="M5578 2048 c-9 -23 3 -38 28 -38 19 0 24 5 24 25 0 20 -5 25 -24 25
-13 0 -26 -6 -28 -12z"/>
<path d="M5125 1734 c-35 -35 -4 -86 40 -66 36 17 32 60 -7 75 -10 3 -24 0
-33 -9z"/>
<path d="M5080 1561 c-39 -38 -47 -75 -26 -117 49 -104 200 -67 200 50 1 30
-6 44 -32 67 -45 40 -102 40 -142 0z"/>
</g>
</svg>
