<svg width="24" height="25" viewBox="0 0 24 25" fill="none" xmlns="http://www.w3.org/2000/svg">
<g clip-path="url(#clip0_117_2983)">
<path d="M9 4.25H12L14 6.25H19C19.5304 6.25 20.0391 6.46071 20.4142 6.83579C20.7893 7.21086 21 7.71957 21 8.25V15.25C21 15.7804 20.7893 16.2891 20.4142 16.6642C20.0391 17.0393 19.5304 17.25 19 17.25H9C8.46957 17.25 7.96086 17.0393 7.58579 16.6642C7.21071 16.2891 7 15.7804 7 15.25V6.25C7 5.71957 7.21071 5.21086 7.58579 4.83579C7.96086 4.46071 8.46957 4.25 9 4.25Z" stroke="#21272A" stroke-width="2" stroke-linecap="round" stroke-linejoin="round"/>
<path d="M17 17.25V19.25C17 19.7804 16.7893 20.2891 16.4142 20.6642C16.0391 21.0393 15.5304 21.25 15 21.25H5C4.46957 21.25 3.96086 21.0393 3.58579 20.6642C3.21071 20.2891 3 19.7804 3 19.25V10.25C3 9.71957 3.21071 9.21086 3.58579 8.83579C3.96086 8.46071 4.46957 8.25 5 8.25H7" stroke="#21272A" stroke-width="2" stroke-linecap="round" stroke-linejoin="round"/>
</g>
<defs>
<clipPath id="clip0_117_2983">
<rect width="24" height="24" fill="white" transform="translate(0 0.25)"/>
</clipPath>
</defs>
</svg>
