<svg width="24" height="25" viewBox="0 0 24 25" fill="none" xmlns="http://www.w3.org/2000/svg">
<path d="M4 10.75V20.75H16V10.75H4ZM6 8.75V4.75C6 4.21957 6.21071 3.71086 6.58579 3.33579C6.96086 2.96071 7.46957 2.75 8 2.75H20C20.5304 2.75 21.0391 2.96071 21.4142 3.33579C21.7893 3.71086 22 4.21957 22 4.75V14.75C22 15.2804 21.7893 15.7891 21.4142 16.1642C21.0391 16.5393 20.5304 16.75 20 16.75H18V20.75C18 21.2804 17.7893 21.7891 17.4142 22.1642C17.0391 22.5393 16.5304 22.75 16 22.75H4C3.46957 22.75 2.96086 22.5393 2.58579 22.1642C2.21071 21.7891 2 21.2804 2 20.75V10.75C2 10.2196 2.21071 9.71086 2.58579 9.33579C2.96086 8.96071 3.46957 8.75 4 8.75H6ZM8 8.75H16C16.5304 8.75 17.0391 8.96071 17.4142 9.33579C17.7893 9.71086 18 10.2196 18 10.75V14.75H20V4.75H8V8.75ZM8 17.75C7.20435 17.75 6.44129 17.4339 5.87868 16.8713C5.31607 16.3087 5 15.5456 5 14.75C5 13.9544 5.31607 13.1913 5.87868 12.6287C6.44129 12.0661 7.20435 11.75 8 11.75C8.79565 11.75 9.55871 12.0661 10.1213 12.6287C10.6839 13.1913 11 13.9544 11 14.75C11 15.5456 10.6839 16.3087 10.1213 16.8713C9.55871 17.4339 8.79565 17.75 8 17.75ZM8 15.75C8.26522 15.75 8.51957 15.6446 8.70711 15.4571C8.89464 15.2696 9 15.0152 9 14.75C9 14.4848 8.89464 14.2304 8.70711 14.0429C8.51957 13.8554 8.26522 13.75 8 13.75C7.73478 13.75 7.48043 13.8554 7.29289 14.0429C7.10536 14.2304 7 14.4848 7 14.75C7 15.0152 7.10536 15.2696 7.29289 15.4571C7.48043 15.6446 7.73478 15.75 8 15.75ZM9 8.75C9 7.95435 9.31607 7.19129 9.87868 6.62868C10.4413 6.06607 11.2044 5.75 12 5.75C12.7956 5.75 13.5587 6.06607 14.1213 6.62868C14.6839 7.19129 15 7.95435 15 8.75H13C13 8.48478 12.8946 8.23043 12.7071 8.04289C12.5196 7.85536 12.2652 7.75 12 7.75C11.7348 7.75 11.4804 7.85536 11.2929 8.04289C11.1054 8.23043 11 8.48478 11 8.75H9ZM10.864 22.268L9.136 21.261L11.861 16.588C12.0975 16.1822 12.4261 15.8376 12.8201 15.582C13.2142 15.3263 13.6627 15.1668 14.1297 15.1162C14.5967 15.0656 15.069 15.1254 15.5087 15.2907C15.9483 15.456 16.343 15.7223 16.661 16.068L17.749 17.252L16.276 18.606L15.189 17.422C15.083 17.3068 14.9514 17.2181 14.8048 17.163C14.6582 17.108 14.5007 17.0881 14.3451 17.105C14.1894 17.122 14.0399 17.1752 13.9086 17.2605C13.7772 17.3458 13.6678 17.4607 13.589 17.596L10.864 22.268V22.268ZM17.376 9.298C17.9375 9.08129 18.5513 9.03884 19.1373 9.1762C19.7233 9.31355 20.2543 9.62434 20.661 10.068L21.749 11.252L20.276 12.606L19.189 11.422C19.0414 11.2614 18.8453 11.1534 18.6306 11.1146C18.416 11.0758 18.1945 11.1082 18 11.207V10.75C18 10.179 17.76 9.663 17.376 9.299V9.298Z" fill="#21272A"/>
</svg>
